<?xml version="1.0" encoding="utf-8"?>
<!-- Generator: Adobe Illustrator 23.0.1, SVG Export Plug-In . SVG Version: 6.00 Build 0)  -->
<svg version="1.1" id="Capa_1" xmlns="http://www.w3.org/2000/svg" xmlns:xlink="http://www.w3.org/1999/xlink" x="0px" y="0px"
	 viewBox="0 0 512 512" style="enable-background:new 0 0 512 512;" xml:space="preserve">
<style type="text/css">
	.st0{fill:#FFFFFF;}
	.st1{fill:#FFBB4D;}
	.st2{fill:#BF7602;}
	.st3{fill:#FFA500;}
</style>
<path class="st0" d="M496.9,120.5H286.1c-9,0-16,7.8-15,16.7c0.9,8,13.9,125.3,14.3,128.9L208,353.2l17.5-78.9
	c0.7-3.1,0.4-6.4-0.9-9.4c-3.3-7.4-57.2-128.6-60.2-135.5c-2.4-5.4-7.8-8.9-13.8-8.9H15.1c-8.3,0-15.1,6.7-15.1,15.1v361.4
	c0,8.3,6.7,15.1,15.1,15.1h481.9c8.3,0,15.1-6.7,15.1-15.1V135.5C512,127.2,505.3,120.5,496.9,120.5z"/>
<rect x="331.3" y="331.3" class="st1" width="90.4" height="60.2"/>
<rect x="30.1" y="331.3" class="st1" width="30.1" height="60.2"/>
<rect x="30.1" y="240.9" class="st2" width="90.4" height="60.2"/>
<polygon class="st3" points="181.8,240.1 195.9,271.8 189.6,300.3 151.4,300.3 151.4,240.1 "/>
<polygon class="st3" points="268.6,330.4 302,330.4 302,390.7 215.1,390.7 "/>
<path class="st1" d="M312.4,281.1c2.8-3.2,4.2-7.4,3.7-11.7l-3.2-28.5h48.4v60.2h-66.9L312.4,281.1z"/>
<rect x="391.5" y="240.9" class="st1" width="90.4" height="60.2"/>
<polygon class="st2" points="90.4,331.3 182,331.3 168.6,391.5 90.4,391.5 "/>
<polygon class="st2" points="240.9,421.6 240.9,481.9 150.6,481.9 150.6,421.6 240.9,421.6 "/>
<rect x="271.1" y="421.6" class="st1" width="90.4" height="60.2"/>
<rect x="451.8" y="331.3" class="st1" width="30.1" height="60.2"/>
<rect x="451.8" y="150.6" class="st1" width="30.1" height="60.2"/>
<polygon class="st2" points="421.6,150.6 421.6,210.8 309.6,210.8 302.9,150.6 "/>
<polygon class="st1" points="167.6,210.8 90.4,210.8 90.4,150.6 140.8,150.6 "/>
<rect x="31" y="149.7" class="st3" width="30.1" height="60.2"/>
<rect x="30.1" y="421.6" class="st1" width="90.4" height="60.2"/>
<polygon class="st3" points="392.4,481 392.4,420.8 482.7,420.8 482.7,481 392.4,481 "/>
<path class="st3" d="M225.9,90.4c8.3,0,15.1-6.7,15.1-15.1V15.1c0-8.3-6.7-15.1-15.1-15.1s-15.1,6.7-15.1,15.1v60.2
	C210.8,83.6,217.6,90.4,225.9,90.4z"/>
<path class="st3" d="M155,85.9c5.9,5.9,15.4,5.9,21.3,0c5.9-5.9,5.9-15.4,0-21.3l-30.1-30.1c-5.9-5.9-15.4-5.9-21.3,0
	c-5.9,5.9-5.9,15.4,0,21.3L155,85.9z"/>
<path class="st3" d="M296.8,85.9l30.1-30.1c5.9-5.9,5.9-15.4,0-21.3c-5.9-5.9-15.4-5.9-21.3,0l-30.1,30.1c-5.9,5.9-5.9,15.4,0,21.3
	C281.3,91.8,290.9,91.8,296.8,85.9z"/>
</svg>
