<?xml version="1.0" encoding="utf-8"?>
<!-- Generator: Adobe Illustrator 23.0.1, SVG Export Plug-In . SVG Version: 6.00 Build 0)  -->
<svg version="1.1" id="Capa_1" xmlns="http://www.w3.org/2000/svg" xmlns:xlink="http://www.w3.org/1999/xlink" x="0px" y="0px"
	 viewBox="0 0 512 512" style="enable-background:new 0 0 512 512;" xml:space="preserve">
<style type="text/css">
	.st0{fill:#FFFFFF;}
	.st1{fill:#AA6900;}
	.st2{fill:#FFA500;}
</style>
<path class="st0" d="M495.9,398.9l-12.6-95.3c-7.7-57.8-48.5-103.4-100.9-119.5c3.8-8,6.1-13.8,7.2-16.7c2.2-4.3,2.3-9.5-0.1-13.9
	C369.8,96.5,324.3,0,263.6,0C203,0,157.5,96.7,137.8,153.6c-2.4,4.5-2.3,9.7-0.1,13.9c1,2.8,3.2,8.3,6.8,15.8
	C91.6,196.8,50,239.1,38.4,293.8L16.8,395.5c-6.1,28.7,11.4,57.1,39.7,64.6l35.1,9.3v7.7c0,19.3,15.7,35,35,35h274
	c19.3,0,35-15.7,35-35v-12.4l19.8-5.2C482.1,452.3,499.5,426.3,495.9,398.9z"/>
<path d="M405.6,421h-284V285c3,0,270.6,0,284,0V421z"/>
<path class="st1" d="M231.4,255c-38.3-39.6-56.8-77.1-63.2-92.1c5.9-6.1,14.2-10.5,24-13.7l8.4,39.3c6.3,29.5,32.8,51,63,51
	s56.7-21.4,63-51l8.4-39.3c9.8,3.2,18.1,7.6,24,13.7c-11.8,27.5-33.6,61.4-63.2,92.1L231.4,255L231.4,255z"/>
<path d="M221.6,143c27.5-3.5,55.8-3.6,84.2,0l-8.4,39.2c-3.4,15.8-17.6,27.3-33.7,27.3s-30.3-11.5-33.7-27.3L221.6,143z"/>
<path class="st2" d="M263.6,30c33.5,0,65.8,59.8,80,90.4c-41.7-13.3-118.3-13.3-159.9,0C197.8,89.8,230.1,30,263.6,30z"/>
<path class="st2" d="M64.2,431c-12.9-3.4-20.8-16.3-18.1-29.3L67.7,300c9.6-45.3,46.2-80.8,91.6-89.2c8,13.1,18.4,28.2,31.7,44.2
	h-74.4c-13.8,0-25,11.2-25,25c0,7.5,0,150.9,0,158.3L64.2,431z"/>
<path d="M405.6,477c0,2.8-2.2,5-5,5h-274c-2.8,0-5-2.2-5-5v-26h284V477z"/>
<path class="st2" d="M447.8,430.3l-12.1,3.2V280c0-13.8-11.2-25-25-25h-74.4c13.2-15.8,23.6-30.8,31.5-43.8
	c45,11.4,79.7,49.7,85.9,96.4l12.6,95.3C467.8,415.3,459.9,427.1,447.8,430.3z"/>
<path d="M289.6,338h-52c-8.3,0-15,6.7-15,15s6.7,15,15,15h52c8.3,0,15-6.7,15-15S297.9,338,289.6,338z"/>
</svg>
