<?xml version="1.0" encoding="utf-8"?>
<!-- Generator: Adobe Illustrator 23.0.1, SVG Export Plug-In . SVG Version: 6.00 Build 0)  -->
<svg version="1.1" id="Capa_1" xmlns="http://www.w3.org/2000/svg" xmlns:xlink="http://www.w3.org/1999/xlink" x="0px" y="0px"
	 viewBox="0 0 512 512" style="enable-background:new 0 0 512 512;" xml:space="preserve">
<style type="text/css">
	.st0{fill:#FFFFFF;}
	.st1{fill:#E58D00;}
	.st2{fill:#FFA500;}
</style>
<path class="st0" d="M466.8,1H45.2C20.3,1,0,21.2,0,46v330c0,24.8,20.3,45,45.2,45h75.3v45c0,4,1.6,7.8,4.4,10.6l30.1,30
	c5.9,5.9,15.4,5.9,21.3,0l19.5-19.4l19.5,19.4c5.9,5.9,15.4,5.9,21.3,0l19.5-19.4l19.5,19.4c5.9,5.9,15.4,5.9,21.3,0l19.5-19.4
	l19.5,19.4c5.9,5.9,15.4,5.9,21.3,0l30.1-30c2.8-2.8,4.4-6.6,4.4-10.6v-45h75.3c24.9,0,45.2-20.2,45.2-45V46
	C512,21.2,491.7,1,466.8,1z"/>
<path class="st1" d="M361.4,459.8l-15.1,15l-19.5-19.4c-5.9-5.9-15.4-5.9-21.3,0l-19.5,19.4l-19.5-19.4c-5.9-5.9-15.4-5.9-21.3,0
	l-19.5,19.4l-19.5-19.4c-5.9-5.9-15.4-5.9-21.3,0l-19.5,19.4l-15.1-15V316c0-57.9,47.3-105,105.4-105s105.4,47.1,105.4,105
	L361.4,459.8L361.4,459.8z"/>
<path class="st2" d="M481.9,376c0,8.3-6.8,15-15.1,15h-75.3v-75c0-74.4-60.8-135-135.5-135s-135.5,60.6-135.5,135v75H45.2
	c-8.3,0-15.1-6.7-15.1-15V121H256c8.3,0,15.1-6.7,15.1-15s-6.7-15-15.1-15H30.1V46c0-8.3,6.8-15,15.1-15h421.6
	c8.3,0,15.1,6.7,15.1,15L481.9,376L481.9,376z"/>
<path d="M225.9,301h-30.1c-8.3,0-15.1,6.7-15.1,15s6.7,15,15.1,15h30.1c8.3,0,15.1-6.7,15.1-15S234.2,301,225.9,301z"/>
<path d="M316.2,301h-30.1c-8.3,0-15.1,6.7-15.1,15s6.7,15,15.1,15h30.1c8.3,0,15.1-6.7,15.1-15S324.6,301,316.2,301z"/>
<ellipse class="st0" cx="436.7" cy="106" rx="15.1" ry="15"/>
<ellipse class="st0" cx="376.5" cy="106" rx="15.1" ry="15"/>
<ellipse class="st0" cx="316.2" cy="106" rx="15.1" ry="15"/>
</svg>
